<?xml version="1.0" encoding="UTF-8" standalone="no"?>
<svg width="265px" height="31px" viewBox="0 0 265 31" version="1.1" xmlns="http://www.w3.org/2000/svg" xmlns:xlink="http://www.w3.org/1999/xlink">
    <!-- Generator: Sketch 41 (35326) - http://www.bohemiancoding.com/sketch -->
    <title>Artboard 2</title>
    <desc>Created with Sketch.</desc>
    <defs>
        <polygon id="path-1" points="0 32.9209252 177.978034 32.9209252 177.978034 0.0838757396 0 0.0838757396"></polygon>
    </defs>
    <g id="Page-1" stroke="none" stroke-width="1" fill="none" fill-rule="evenodd">
        <g id="Group-6-Copy" transform="translate(-2.000000, -3.000000)">
            <g id="Group-2">
                <g id="Group-25" transform="translate(0.000000, 0.037157)">
                    <path d="M58.1302396,25.8583217 C57.649365,25.9397768 57.0859968,25.9939995 56.683915,25.9939995 C55.076304,25.9939995 53.9507614,25.5056321 53.9507614,24.254879 C53.9507614,23.0325686 55.1562905,22.4890102 57.0054133,22.4890102 L58.1302396,22.4890102 L58.1302396,25.8583217 L58.1302396,25.8583217 Z M56.28243,15.4531307 C54.8091249,15.4531307 53.4688123,15.8337789 52.4232563,16.43156 L52.4232563,18.7667671 C53.4148512,18.1958553 54.4879847,17.7900323 55.8528901,17.7900323 C57.1663415,17.7900323 58.1302396,18.386724 58.1302396,19.6910947 L58.1302396,20.6967563 L56.8171463,20.6967563 C53.3878707,20.6967563 51.3251718,21.8912292 51.3251718,24.3352448 C51.3251718,27.0532786 53.5753019,28.0054438 56.6571732,28.0054438 C57.9970082,28.0054438 59.6046192,27.8134857 60.7307587,27.5144137 L60.7307587,19.5543276 C60.7307587,16.5398843 58.8815166,15.4531307 56.28243,15.4531307 L56.28243,15.4531307 Z" id="Fill-2" fill="#FFFFFF"></path>
                    <path d="M68.2147693,25.7216393 C67.4648055,25.7216393 66.7684447,25.5859615 66.2060315,25.3678604 L66.2060315,18.17016 C66.7684447,17.9803806 67.5994695,17.8704828 68.348717,17.8704828 C70.7348243,17.8704828 72.2352294,19.2836619 72.2352294,21.6751493 C72.2352294,24.3642563 70.5737767,25.7216393 68.2147693,25.7216393 M68.3747425,15.4532154 C66.5812522,15.4532154 64.7853742,15.8889336 63.57889,16.4041703 L63.57889,32.6491945 L66.2060315,32.6491945 L66.2060315,27.7052461 C66.6886968,27.8950256 67.518886,28.0307033 68.3747425,28.0307033 C72.3955607,28.0307033 74.9137056,25.6680218 74.9137056,21.593089 C74.9137056,17.6800982 72.3408833,15.4532154 68.3747425,15.4532154" id="Fill-4" fill="#FFFFFF"></path>
                    <path d="M80.4412443,21.6751372 L83.1742785,14.2302878 L85.8800934,21.6751372 L80.4412443,21.6751372 Z M81.5122288,11.6227569 L75.3225803,27.7588515 L78.2159458,27.7588515 L79.6093838,23.9568478 L86.7106406,23.9568478 L88.104198,27.7588515 L91.0782664,27.7588515 L84.8617567,11.6227569 L81.5122288,11.6227569 Z" id="Fill-6" fill="#FFFFFF"></path>
                    <path d="M98.1023183,15.4531791 C96.360879,15.4531791 94.3250413,15.8338273 92.6631111,16.4857101 L92.6631111,27.7588273 L95.3156812,27.7588273 L95.3156812,18.2510947 C96.0131164,18.0339618 96.9506309,17.8967106 97.888384,17.8967106 C99.3622861,17.8967106 100.433271,18.5218451 100.433271,20.2619338 L100.433271,27.7588273 L103.060054,27.7588273 L103.060054,20.0164793 C103.060054,16.6213878 101.130467,15.4531791 98.1023183,15.4531791" id="Fill-8" fill="#FFFFFF"></path>
                    <polygon id="Fill-10" fill="#FFFFFF" points="110.203931 25.2048655 106.828377 15.7260597 103.987421 15.7260597 108.891673 28.3035476 107.230579 32.6491097 109.829068 32.6491097 116.260467 15.7260597 113.527075 15.7260597"></polygon>
                    <path d="M121.470161,23.7123373 L121.470161,17.9803443 L124.846788,17.9803443 L124.846788,15.7261081 L121.470161,15.7261081 L121.470161,12.7903362 L118.844929,12.7903362 L118.844929,15.7261081 L117.048932,15.7261081 L117.048932,17.9803443 L118.844929,17.9803443 L118.844929,24.3095132 C118.844929,27.0533271 120.478924,28.030667 122.408511,28.030667 C123.532263,28.030667 124.498787,27.78727 125.276328,27.3781791 L125.276328,24.9620011 C124.551674,25.3951775 123.881697,25.6412372 123.10523,25.6412372 C122.087012,25.6412372 121.470161,25.1517805 121.470161,23.7123373" id="Fill-12" fill="#FFFFFF"></path>
                    <path d="M132.994091,15.4531791 C131.734004,15.4531791 130.556052,15.7517671 129.884762,16.024575 L129.884762,9.28595212 L127.233385,9.28595212 L127.233385,27.7588273 L129.884762,27.7588273 L129.884762,18.3051963 C130.582555,18.0617994 131.520069,17.8967106 132.458419,17.8967106 C133.931844,17.8967106 135.004022,18.5218451 135.004022,20.2619338 L135.004022,27.7588273 L137.631045,27.7588273 L137.631045,20.0164793 C137.631045,16.6487413 135.673164,15.4531791 132.994091,15.4531791" id="Fill-14" fill="#FFFFFF"></path>
                    <path d="M141.813233,10.3736256 C140.929082,10.3736256 140.152854,11.1064793 140.152854,12.0302017 C140.152854,12.9801883 140.929082,13.7413636 141.813233,13.7413636 C142.698099,13.7413636 143.474924,12.9801883 143.474924,12.0302017 C143.474924,11.1064793 142.698099,10.3736256 141.813233,10.3736256" id="Fill-16" fill="#FFFFFF"></path>
                    <mask id="mask-2" fill="white">
                        <use xlink:href="#path-1"></use>
                    </mask>
                    <g id="Clip-19"></g>
                    <polygon id="Fill-18" fill="#FFFFFF" mask="url(#mask-2)" points="140.501333 27.7588757 143.152232 27.7588757 143.152232 15.7260355 140.501333 15.7260355"></polygon>
                    <path d="M151.549427,15.4531791 C149.807868,15.4531791 147.771195,15.8338273 146.111533,16.4857101 L146.111533,27.7588273 L148.764222,27.7588273 L148.764222,18.2510947 C149.460941,18.0339618 150.397978,17.8967106 151.335493,17.8967106 C152.809514,17.8967106 153.881334,18.5218451 153.881334,20.2619338 L153.881334,27.7588273 L156.508118,27.7588273 L156.508118,20.0164793 C156.508118,16.6213878 154.579128,15.4531791 151.549427,15.4531791" id="Fill-20" fill="#FFFFFF" mask="url(#mask-2)"></path>
                    <path d="M167.234534,25.070277 C166.591537,25.3152474 166.001905,25.4776735 165.171238,25.4776735 C162.840286,25.4776735 161.340358,24.0099086 161.340358,21.6462587 C161.340358,19.175858 162.867027,17.8162964 165.386366,17.8162964 C166.083085,17.8162964 166.72632,17.9251049 167.234534,18.1154895 L167.234534,25.070277 Z M158.660688,21.6462587 C158.660688,25.6411888 161.259416,27.7325148 164.957542,27.7325148 C165.868196,27.7325148 166.832929,27.5144137 167.234534,27.2704115 L167.234534,27.541646 C167.234534,29.7975767 165.787732,30.6676815 164.100373,30.6676815 C162.705741,30.6676815 161.473351,30.3132975 160.187835,29.6062238 L160.187835,32.078198 C161.285681,32.5950081 162.652854,32.9209494 164.100373,32.9209494 C166.805471,32.9209494 169.861317,31.6439322 169.861317,27.7052824 L169.861317,16.3227515 C168.681336,15.8337789 167.020599,15.4531307 165.386366,15.4531307 C161.259416,15.4531307 158.660688,17.7900323 158.660688,21.6462587 L158.660688,21.6462587 Z" id="Fill-21" fill="#FFFFFF" mask="url(#mask-2)"></path>
                    <polygon id="Fill-22" fill="#FFFFFF" mask="url(#mask-2)" points="170.900749 10.1309911 172.141854 10.1309911 172.141854 13.4993343 172.640517 13.4993343 172.640517 10.1309911 173.886875 10.1309911 173.886875 9.67990183 170.900749 9.67990183"></polygon>
                    <path d="M177.30728,9.67991393 L176.405223,12.3374314 C176.314253,12.6066084 176.247637,12.8106697 176.204898,12.9499785 C176.166934,12.8248306 176.107123,12.6361404 176.024869,12.3842711 L175.133197,9.67991393 L174.382875,9.67991393 L174.382875,13.4993464 L174.863272,13.4993464 L174.863272,10.248284 L175.952881,13.4993464 L176.402716,13.4993464 L177.497338,10.3028698 L177.497338,13.4993464 L177.978093,13.4993464 L177.978093,9.67991393 L177.30728,9.67991393 Z" id="Fill-23" fill="#FFFFFF" mask="url(#mask-2)"></path>
                    <g id="Group-3" mask="url(#mask-2)">
                        <g transform="translate(3.601649, 5.384615)">
                            <ellipse id="Oval" fill="#3083D3" cx="9.79860365" cy="9.90101813" rx="8.36466165" ry="8.47719988"></ellipse>
                            <path d="M11.6589152,17.3825183 C11.6655127,17.371116 11.6739009,17.3601928 11.6853051,17.3519525 C11.7157477,17.3299144 11.7628726,17.3069182 11.7901108,17.3009775 C11.8173489,17.294941 11.8840777,17.2323721 11.9383656,17.1619461 C11.9927476,17.0914243 12.0161216,17.0060508 11.9905799,16.9722272 C11.964944,16.9383077 11.9761597,16.9216355 12.0155561,16.9352416 C12.0549525,16.9487518 12.0979303,16.9452066 12.1112195,16.9274803 C12.1244145,16.9096583 12.1496734,16.8536049 12.1672981,16.8028216 C12.1849228,16.752134 12.2693705,16.7014465 12.3549493,16.6903317 C12.440528,16.679121 12.5407155,16.6315954 12.5774728,16.5846448 C12.6142302,16.53779 12.6360019,16.4818325 12.6257287,16.4603693 C12.6155497,16.4389062 12.5989618,16.3904224 12.5889713,16.3527661 C12.5788866,16.3151098 12.6196025,16.2958504 12.679451,16.3101273 C12.7392996,16.3244041 12.8705894,16.2906763 12.9712481,16.2352937 L12.9883073,16.2259035 C13.1405206,16.063301 13.3405185,15.8437828 13.491318,15.6799346 C13.511299,15.5753976 13.583023,15.4390491 13.6506943,15.3768634 C13.7184598,15.3145819 13.814406,15.2507674 13.8640756,15.2348617 C13.9137452,15.2190517 13.9677503,15.2056373 13.9841497,15.2050624 L14.0435271,15.203146 C14.0583243,15.2025711 14.0731215,15.202092 14.1320275,15.2000798 C14.1879176,15.1334866 14.2750986,15.0206134 14.3257107,14.9494209 C14.3763228,14.8781326 14.4471986,14.7421673 14.4831077,14.647212 C14.5190168,14.5522568 14.56322,14.4206033 14.5814101,14.354585 C14.5995061,14.2886624 14.6799953,14.1667824 14.7602961,14.0839001 L15.0134508,13.8224138 C15.0134508,13.8224138 15.0270228,13.766073 15.0436107,13.6972759 C15.0602929,13.6284789 15.0678329,13.5456924 15.0604814,13.513306 C15.0530357,13.4808239 15.0086441,13.4520786 14.961802,13.4493957 C14.9149599,13.4467128 14.8409738,13.401391 14.7975247,13.3487872 C14.7540756,13.2960874 14.6369232,13.2343809 14.5371128,13.2116721 C14.4373023,13.1889633 14.29376,13.1370302 14.2180775,13.0963077 C14.142395,13.0555852 14.0368353,13.0023106 13.9835842,12.9778771 C13.9302389,12.9534436 13.8873553,12.926423 13.8882035,12.9178952 L13.896309,12.8398038 L13.8473934,12.7102584 C13.8063948,12.6016012 13.7175173,12.4884405 13.6497518,12.4586412 C13.5820805,12.4289378 13.4595559,12.3910898 13.3774644,12.3745133 C13.2954671,12.3579369 13.1690783,12.2798455 13.0967887,12.2009876 C13.0244992,12.1221297 12.917243,12.0029325 12.8584312,11.9361476 C12.7996194,11.8692669 12.6759638,11.8372638 12.5835991,11.8648593 C12.4912344,11.8924548 12.3681442,11.8969582 12.3099922,11.8747285 C12.2519343,11.8525946 12.1420392,11.8235619 12.0658854,11.8102432 C11.9896374,11.7970204 11.871731,11.767796 11.8036827,11.7453747 C11.7357287,11.7230492 11.6125443,11.7308104 11.5299816,11.7627177 C11.4475131,11.794625 11.3688146,11.8650509 11.3552426,11.9190921 C11.3416707,11.9731332 11.3090603,12.0246831 11.2828588,12.03369 C11.2566574,12.0426968 11.1931331,12.0024534 11.141767,11.9442921 C11.0903067,11.8861308 10.994549,11.8864183 10.9288569,11.944867 C10.8631649,12.0033158 10.7448815,11.9850146 10.6660887,11.9041445 C10.587296,11.8232744 10.5375321,11.6673791 10.5555338,11.5577638 C10.5734413,11.4481484 10.5446009,11.332209 10.4913498,11.3000143 C10.4380987,11.2678196 10.3667517,11.2415655 10.3327275,11.2415655 L10.3017194,11.2415655 L10.2086949,11.2415655 C10.1776868,11.2416613 10.1466786,11.2416613 10.1156704,11.2416613 L10.0224575,11.2416613 L10.1469613,10.7524165 C10.1756133,10.6397349 10.1110522,10.5628892 10.003419,10.5815736 C9.89588012,10.600258 9.78617346,10.6883144 9.75968929,10.7771374 C9.73329938,10.8659604 9.63461993,10.9462555 9.54037022,10.955454 C9.44621476,10.9647484 9.31728116,10.9224928 9.25394536,10.8617444 C9.1905153,10.8009002 9.11370179,10.6593775 9.08316488,10.5472709 L9.04518225,10.4075688 C9.01464535,10.2954621 9.01549359,10.1766482 9.0471615,10.1435911 C9.07873515,10.1106299 9.0936266,10.0336883 9.08033739,9.97265247 C9.06695393,9.91171245 9.08561538,9.8234644 9.12180726,9.77660957 C9.1579049,9.72975474 9.22086371,9.68376227 9.26167383,9.67446796 C9.30238971,9.66517365 9.33584835,9.64993864 9.3359426,9.64054851 L9.33660235,9.55536663 L9.48759038,9.56945182 C9.60163253,9.5801834 9.73895436,9.57759632 9.79277094,9.5638944 C9.84668177,9.55019248 9.87976342,9.5199141 9.86637996,9.49663041 C9.85299651,9.47334673 9.93358001,9.4580159 10.0454544,9.46251933 C10.1573288,9.46692694 10.2778742,9.49356425 10.3133121,9.52163882 C10.34875,9.54971339 10.4032263,9.5612115 10.4343287,9.54722213 C10.4655254,9.53323275 10.5130272,9.54473087 10.5397941,9.57280544 C10.5666553,9.60088001 10.5993599,9.68874479 10.6125549,9.76798598 C10.6257499,9.84732299 10.6873892,9.9777308 10.749594,10.0579302 C10.8117988,10.1381295 10.8699509,10.1152291 10.8789988,10.0071468 C10.8879526,9.8989687 10.8571329,9.72362241 10.8104793,9.61736064 L10.8015256,9.5970473 C10.754872,9.49078554 10.7527985,9.35855719 10.7968131,9.30327041 C10.8408277,9.24788781 10.9091587,9.18771433 10.9485551,9.16941316 C10.9880457,9.15120781 11.0521356,9.0952503 11.0910607,9.04513767 C11.1299858,8.99502505 11.2077418,8.90945989 11.2638204,8.85503547 C11.3198047,8.80070687 11.385214,8.66426254 11.4089649,8.55196426 C11.4328101,8.43957017 11.4788982,8.28645357 11.5114144,8.21152417 C11.5439305,8.13669059 11.6217808,8.05764104 11.6844568,8.03598625 C11.7470387,8.01433146 11.809809,7.99670102 11.8239464,7.99679683 L11.8749355,7.99708429 C11.8877535,7.9971801 11.9500525,8.00446224 11.9760654,7.98625689 C12.0594764,7.92761649 11.8961417,7.78398585 11.9107504,7.73636448 C11.9254534,7.68864729 12.0270545,7.6224373 12.1365727,7.58918858 C12.2461851,7.55593985 12.3410003,7.56370108 12.3474093,7.60643575 C12.353724,7.64917042 12.438643,7.63412705 12.536003,7.57299539 L12.7156429,7.46031384 C12.8130029,7.39918219 12.8855751,7.30432272 12.8768099,7.24951503 C12.8680447,7.19470734 12.8243128,7.17334 12.77945,7.20208529 C12.7346814,7.23083059 12.6359077,7.21262524 12.5601309,7.16145861 C12.4842599,7.11038781 12.4210183,7.05165159 12.4194161,7.03085916 L12.4136668,6.95564231 C12.4122531,6.93686206 12.4108394,6.91817762 12.4049016,6.84353567 L12.3800197,6.8415235 C12.2658833,6.83270828 12.185771,6.785566 12.201982,6.736699 C12.2182872,6.68792782 12.3247894,6.65717035 12.438643,6.66847684 L12.5413752,6.67872932 C12.6552288,6.69003581 12.8219566,6.65764944 12.9116823,6.60677027 C13.0015023,6.5558911 13.1058367,6.49207655 13.1434423,6.46486434 C13.181048,6.43765213 13.2095114,6.39798363 13.2066839,6.37671211 L13.1960337,6.29967472 C13.1933947,6.2805112 13.1907557,6.26134767 13.1798227,6.184981 L13.0244992,6.05831008 C12.9351505,5.98548867 12.7878382,5.86801624 12.6970757,5.797207 L12.683221,5.78637961 C12.5923643,5.71547455 12.530725,5.63949116 12.5460877,5.6174531 C12.5614504,5.59541504 12.5229023,5.49768104 12.4604147,5.40013868 L12.3194171,5.18042883 C12.2569296,5.08298228 12.189164,5.0320073 12.1689003,5.06726819 C12.1486367,5.10252908 12.1335567,5.1667269 12.135536,5.21003648 C12.1374209,5.25334605 12.1056588,5.31208227 12.0648487,5.34054011 C12.0240385,5.36899795 11.9560845,5.35002606 11.9138606,5.29838035 C11.8716368,5.24683045 11.8244177,5.14056869 11.8089607,5.06218985 C11.7935038,4.98390684 11.7324299,4.90485728 11.6732411,4.88646029 C11.6139581,4.86815912 11.5262116,4.80472784 11.4781442,4.74560836 C11.4300769,4.68648887 11.3593896,4.64614964 11.32103,4.65592304 C11.2827646,4.66579226 11.2033121,4.65381506 11.1445945,4.62947737 C11.0857827,4.60513969 11.0246146,4.61567963 11.0086864,4.6529527 C10.9927582,4.69022576 10.9925697,4.74350037 11.0083094,4.7713833 C11.0240491,4.79926624 11.0260284,4.84477962 11.0127392,4.87247092 C10.9993557,4.90025804 11.0148127,4.97269617 11.0470461,5.03344456 C11.0792795,5.09419295 11.073059,5.17036797 11.0330971,5.2025627 C10.9932295,5.23475743 10.9929467,5.29454764 11.0325316,5.33527014 C11.0722107,5.37608845 11.1232941,5.48014642 11.1460083,5.5663823 C11.1688167,5.65261818 11.1252733,5.7792891 11.0492138,5.8477029 C10.9731543,5.91621251 10.9358314,6.05275266 10.9664626,6.15115738 C10.9969995,6.2495621 11.0027487,6.36272273 10.9792805,6.40277451 C10.9557181,6.44273047 10.906614,6.47866208 10.8699509,6.48259061 C10.833382,6.48661495 10.7694807,6.4211715 10.7281051,6.33723524 C10.6866352,6.25329898 10.6487468,6.11771702 10.6439401,6.03579293 C10.6390391,5.95386885 10.5765515,5.88018508 10.5051102,5.87204058 C10.4335747,5.86389608 10.3076571,5.81656216 10.2250944,5.76692862 C10.1426259,5.71729508 10.021515,5.64284478 9.95591719,5.60154737 C9.89031939,5.56024997 9.81039564,5.53552901 9.77835074,5.54654804 C9.74630584,5.55766289 9.69899248,5.49135708 9.67326231,5.39918051 C9.64753214,5.30700393 9.59795679,5.23475743 9.5630844,5.23859014 C9.52821201,5.24242284 9.5156768,5.15513297 9.53528074,5.04455941 C9.55479043,4.93389003 9.63933242,4.77856963 9.72302616,4.69923262 L9.76119729,4.66320518 C9.84489103,4.58386818 9.93310876,4.47818131 9.95704818,4.42826032 C9.98108186,4.37843515 10.0134095,4.33761683 10.0287722,4.33761683 L10.0847565,4.33761683 C10.0987997,4.33761683 10.112843,4.33761683 10.168733,4.33771265 C10.2136901,4.23422959 10.2739157,4.10075561 10.3025676,4.04106122 C10.3313138,3.98136683 10.4124628,3.92531351 10.4830558,3.9165941 C10.5535546,3.90777888 10.6374368,3.86341531 10.6694817,3.81809357 C10.7014324,3.772676 10.7000186,3.68950629 10.6663715,3.63335715 C10.6326301,3.57720801 10.6255614,3.5196216 10.6506318,3.50534478 C10.6757022,3.49116376 10.6799435,3.44938727 10.660151,3.4125933 C10.6402643,3.37589514 10.568823,3.32051254 10.501246,3.28965926 C10.4337632,3.2589018 10.3753284,3.26311777 10.3715584,3.29914521 C10.3676942,3.33507682 10.3720297,3.38078184 10.3811719,3.40052027 C10.3903141,3.42035453 10.3527085,3.46146029 10.2926714,3.47257514 C10.244981,3.48139036 10.1795717,3.47659948 10.0991767,3.46126866 C10.0592149,3.45369907 9.99427682,3.43731425 9.95544594,3.37551187 C9.91670931,3.31380531 9.89211013,3.24328352 9.90078111,3.21885002 C9.90945208,3.19441652 9.8874919,3.11268407 9.85195976,3.03717977 C9.81633337,2.96167546 9.76760627,2.88981223 9.74357259,2.87754757 C9.71953892,2.86528291 9.66751308,2.92085715 9.62802245,3.0009607 C9.58843757,3.08116007 9.56619464,3.17774425 9.57872985,3.21559222 C9.59117081,3.25344019 9.63207519,3.30249882 9.66968082,3.3246327 C9.70719221,3.34667076 9.73537287,3.41144348 9.73216838,3.46845498 C9.72905814,3.52546648 9.69305475,3.54415092 9.65233888,3.51003984 C9.611623,3.47583294 9.49183162,3.39802901 9.45752473,3.33699318 C9.42331208,3.27605315 9.38174796,3.26005161 9.36516001,3.30144483 C9.34866631,3.34293387 9.3059712,3.39563357 9.27043906,3.41862981 C9.23481267,3.44162604 9.18712231,3.48963068 9.09315535,3.52527485 C8.99909414,3.56101483 8.89212072,3.56245209 8.85545759,3.52843683 C8.8187002,3.49451738 8.73538346,3.48177364 8.67016266,3.50017062 C8.60503611,3.51856761 8.560456,3.56906351 8.57120047,3.6124689 C8.58185068,3.65577848 8.55103103,3.67292983 8.50268093,3.65050851 C8.45423658,3.62808718 8.38006206,3.62233812 8.33783819,3.63766894 C8.29552007,3.65299976 8.20032786,3.66468952 8.12615334,3.66363552 C8.05207307,3.66267735 8.01720068,3.64456781 8.04877433,3.62339211 C8.08034798,3.60231223 8.1078689,3.55938593 8.10984814,3.52805356 C8.11192164,3.49672119 8.08195023,3.46490973 8.0432136,3.45753177 C8.00457122,3.45005799 7.91550524,3.41431801 7.84528921,3.37790731 C7.77507318,3.34159242 7.69816541,3.31026005 7.67441449,3.3083437 C7.65066356,3.30633153 7.61032468,3.32559088 7.58478301,3.35098255 C7.58478301,3.35098255 7.52587695,3.30269046 7.50372826,3.30824788 C7.47130636,3.31639238 7.41522779,3.33613082 7.4125888,3.28017331 C7.4099498,3.22421581 7.35179773,3.19384162 7.2832782,3.21271769 C7.21485291,3.23159377 7.07630584,3.28151476 6.97545865,3.32377034 C6.87461146,3.36602592 6.76188881,3.43568535 6.72484867,3.47851584 C6.68790279,3.52134632 6.64247443,3.53476079 6.62400148,3.5082193 C6.60552854,3.48177364 6.56773441,3.44162604 6.54002499,3.4191089 C6.51231558,3.39659175 6.48017643,3.35951032 6.46867796,3.3366099 C6.45708525,3.31380531 6.41193964,3.30585244 6.36830202,3.31907528 C6.32457016,3.33229811 6.25501387,3.32051254 6.213544,3.29291706 C6.1987468,3.28304784 6.18234735,3.27519079 6.1661364,3.26867519 C7.26753849,2.62803843 8.54113481,2.25981122 9.89833062,2.25981122 C14.0573818,2.25981122 17.4409463,5.69966464 17.4409463,9.92790563 C17.4409463,13.5395601 14.9712269,16.574009 11.6589152,17.3825183 M11.5654195,15.931935 L11.5623092,15.9615427 C11.5592932,15.9911503 11.5562772,16.0206622 11.553167,16.0498865 C11.5500568,16.0792067 11.5469465,16.1083353 11.543742,16.1372722 C11.5406318,16.1662092 11.5375216,16.1949544 11.5343171,16.2236039 L11.4161279,16.4526081 C11.3629711,16.5557079 11.32103,16.6745218 11.3228207,16.7167773 C11.3247057,16.7591287 11.3117935,16.8298422 11.2942631,16.8741099 C11.2766384,16.9183777 11.2510967,17.0082546 11.2375247,17.0737939 C11.2238585,17.1393331 11.2194288,17.2349592 11.2276285,17.2862216 C11.2358282,17.3375798 11.214999,17.3908545 11.1812577,17.4045564 C11.1475163,17.4183541 11.1149059,17.4532317 11.1087796,17.481977 L11.1074601,17.4957748 C10.7135906,17.5606433 10.3100133,17.5956168 9.89833062,17.5956168 C5.73965647,17.5956168 2.35628042,14.1558592 2.35628042,9.92790563 C2.35628042,7.97006371 3.08332267,6.18268138 4.27539299,4.826191 C4.24966282,4.91319342 4.23486561,4.99118898 4.22657164,5.04551758 L4.22647739,5.0456134 C4.20329196,5.13376563 4.19094525,5.28410352 4.21083194,5.28582823 C4.23062438,5.28755295 4.2572028,5.28554078 4.26973801,5.28132481 C4.28227322,5.27720465 4.29066144,5.29627236 4.2883052,5.32396366 C4.28604321,5.35155914 4.2721885,5.40052195 4.26182103,5.42342237 C4.25154781,5.44632279 4.2547523,5.4643365 4.26898401,5.46328251 L4.32157535,5.45973726 C4.33486456,5.45877908 4.34815376,5.45791672 4.40178185,5.45437147 C4.43806799,5.44478971 4.33863454,5.5946485 4.27511024,5.69142432 L4.25013407,5.72946393 C3.9974506,5.9394962 3.97266292,5.92818972 3.72799068,6.14770794 C3.67945208,6.26106021 3.93515154,6.14215052 4.1409929,6.00599365 L4.39772911,5.8743402 C4.48368485,5.79759027 4.57595531,5.68395054 4.65776406,5.60825461 C4.73947856,5.53255867 4.74400254,5.40588774 4.77698994,5.38643676 C4.80988309,5.3670816 4.87859113,5.32032259 4.92967447,5.28266625 C4.98066356,5.24500992 5.04418786,5.20735358 5.07067203,5.19901745 C5.09725045,5.19068131 5.15832426,5.15101281 5.20648586,5.1107694 C5.25464746,5.07062181 5.29988732,5.05969859 5.30714455,5.08662335 C5.31430753,5.11354811 5.34842592,5.14832992 5.38292132,5.16404401 C5.41732246,5.17966228 5.48056402,5.19662201 5.52335338,5.20160453 C5.56614275,5.20658704 5.62335232,5.22709202 5.65059049,5.24721372 C5.67773441,5.26723961 5.73786572,5.37072267 5.78404808,5.47717607 L5.81920322,5.55804616 C5.86547983,5.66449956 5.90779795,5.8466489 5.91326443,5.96287571 L5.9228779,6.16438021 C5.92834438,6.28060701 6.01458287,6.38974331 6.11458181,6.40699049 C6.2144865,6.42423766 6.29045176,6.49753816 6.28338304,6.56978466 C6.27640856,6.64193535 6.27942455,6.73392029 6.29026326,6.77397206 C6.30100773,6.81411965 6.34539934,6.88646198 6.38884846,6.9349457 C6.43229757,6.98333361 6.47056296,7.08748739 6.47376745,7.16653695 C6.47706619,7.2455865 6.46867796,7.36919127 6.45520025,7.44134195 C6.44172255,7.51349264 6.41552113,7.62167076 6.39695393,7.68184424 C6.37838674,7.74201772 6.36698253,7.84070989 6.37169501,7.90117082 C6.3764075,7.96172758 6.37857524,8.02784175 6.37650175,8.04815509 L6.36905602,8.12231795 C6.36717103,8.14081075 6.36538028,8.15939937 6.35831155,8.2339455 L6.48309817,8.53787907 C6.52711278,8.64519483 6.59308758,8.78815475 6.62956222,8.85541874 C6.6661311,8.92268273 6.73238865,9.01984182 6.79214296,9.05606089 C6.85189728,9.09218414 6.86320724,9.19442156 6.90561961,9.29972515 C6.94812623,9.40502875 7.01787102,9.55431263 7.04548618,9.6469683 C7.07319559,9.73952814 7.1535906,9.89024929 7.22418363,9.98185096 L7.23030986,9.98980383 C7.30090289,10.0814055 7.39307911,10.1742528 7.4761131,10.2495655 C7.55914709,10.3249739 7.58563126,10.2919169 7.57903378,10.266621 C7.56093784,10.1978239 7.51871397,10.113696 7.46272964,10.0200822 C7.40683956,9.92637255 7.31579435,9.76635708 7.26046977,9.66450292 L7.2504793,9.64610594 C7.19524897,9.54425178 7.16433506,9.43070787 7.1530251,9.38021198 C7.14180938,9.32971608 7.22248713,9.30940274 7.27300498,9.33220734 C7.32352282,9.35510775 7.38101514,9.43425313 7.40080758,9.50812853 C7.42060002,9.58209975 7.49901578,9.71365738 7.57498104,9.8006598 L7.59524473,9.82394348 C7.67130425,9.91094591 7.74067203,10.0089674 7.7495315,10.0418328 C7.75848523,10.0746983 7.81286731,10.1362132 7.87064238,10.1785646 C7.9283232,10.220916 8.02342116,10.3248781 8.08185598,10.4094851 C8.1402908,10.4941879 8.18119517,10.6017911 8.1727127,10.6487418 C8.16423022,10.6955966 8.20193011,10.7798203 8.25650069,10.8357778 C8.31107127,10.8918311 8.39994875,10.9489384 8.45404808,10.9627362 C8.50814741,10.9765339 8.62661929,11.0372823 8.71747601,11.0977432 C8.80823848,11.1582042 8.93783183,11.230259 9.00531462,11.2578545 C9.07279742,11.28545 9.16450238,11.2930196 9.20908249,11.2747184 C9.25375686,11.2564173 9.32331314,11.252872 9.36374627,11.2667656 C9.40417939,11.2806591 9.48890988,11.3371915 9.55215143,11.3923825 C9.61529874,11.4474776 9.75808705,11.5075553 9.8694902,11.5257607 C9.98079911,11.543966 10.1157647,11.6294353 10.1692985,11.7156712 C10.2229266,11.8019071 10.3171763,11.8982038 10.3788156,11.929632 C10.4404549,11.9610602 10.5724045,12.0337858 10.6719322,12.0912764 L10.6741942,12.0926178 C10.7400748,12.1306574 10.8008658,12.1541328 10.8373405,12.1581571 C10.8377175,12.1582529 10.8380945,12.1586362 10.8384715,12.1586362 C10.9429001,12.1764583 11.0218814,11.9807986 11.1693822,12.2279124 L11.1701362,12.2273374 C11.1696649,12.2548371 11.1692879,12.2823368 11.1688167,12.3097406 C11.1684397,12.3392525 11.1679684,12.3687643 11.1674972,12.3981803 C11.1669317,12.4276921 11.1664604,12.4570123 11.1659892,12.4864284 L11.1018051,12.6402157 C11.0571308,12.7473398 10.9923812,12.852835 10.9578858,12.8745856 C10.9233904,12.8963362 10.8770196,12.9736611 10.8548709,13.0465783 C10.8327222,13.1194955 10.8146263,13.1848432 10.814532,13.1919337 L10.813778,13.2562273 C10.8191503,13.3162092 10.8738151,13.3226289 10.8523262,13.3564526 C10.830743,13.390372 10.813778,13.4247705 10.7966246,13.4623311 C10.7795654,13.4999874 10.8053898,13.577983 10.8541169,13.6356652 C10.902844,13.6933474 10.9624098,13.7705764 10.9864435,13.8071788 C11.0104772,13.8438769 11.0546803,13.9462102 11.0847459,14.0347457 C11.1148116,14.1232812 11.157978,14.2247521 11.1805979,14.2602046 C11.2032178,14.2956571 11.2303617,14.3534351 11.2409177,14.3886002 C11.2514737,14.4238611 11.3282872,14.4933289 11.4116982,14.5430583 C11.4951092,14.5927876 11.6052871,14.6641718 11.6564647,14.7016365 C11.7077365,14.7391012 11.7551441,14.8523576 11.7619301,14.9532536 C11.7686218,15.0542454 11.7613646,15.1756463 11.7458134,15.2230761 C11.7302622,15.2705058 11.7097158,15.359233 11.7001965,15.4200772 C11.6906773,15.4810172 11.6577842,15.6076881 11.627153,15.7015894 C11.5965219,15.7954907 11.5687182,15.8991654 11.5654195,15.931935 M9.88089442,0.0663537184 C7.23728434,0.0708571477 4.75361601,1.12178507 2.88728328,3.02558583 C1.0210448,4.92967405 -0.00439203643,7.45858913 3.76998837e-05,10.1465615 C0.00371343853,12.4482929 1.53979519,15.6824259 4.56549359,19.7590833 C6.77781701,22.739587 9.05357048,25.1421186 9.07571916,25.1653064 C9.30012771,25.4010179 9.60012454,25.5308508 9.9206678,25.5309466 L9.92076205,25.5309466 C10.2426248,25.5309466 10.5435641,25.4001555 10.7682554,25.1626236 C10.7906869,25.1389566 13.0412757,22.7531931 15.2621758,19.7410696 C18.2755275,15.6542555 19.801336,12.4147568 19.7972833,10.1128337 C19.7882353,4.57323242 15.3399318,0.0663537184 9.88089442,0.0663537184" id="Fill-24" fill="#FFFFFF"></path>
                        </g>
                    </g>
                    <polygon id="Fill-1" fill="#FFFFFF" mask="url(#mask-2)" points="43.8219167 11.6227448 40.0432071 24.4173655 36.1866598 11.6227448 32.7824546 11.6227448 30.2361353 27.7588394 32.9425471 27.7588394 34.872134 15.2629276 38.6504854 27.7588394 41.3305136 27.7588394 45.1093426 15.2629276 47.037855 27.7588394 49.7698148 27.7588394 47.252028 11.6227448"></polygon>
                </g>
            </g>
            <path d="M188.94,23.3599992 C189.2,23.3799992 189.48,23.3999992 189.7,23.3999992 C192.68,23.3999992 194.46,22.0199992 194.46,19.4799992 C194.46,17.2399992 193.08,15.7199992 189.8,15.7199992 C189.1,15.7199992 188.24,15.8199992 187.7,15.8999992 L187.7,27.7999992 L188.94,27.7999992 L188.94,23.3599992 Z M188.94,16.8199992 C189.22,16.7999992 189.5,16.7799992 189.74,16.7799992 C192.3,16.7799992 193.2,17.9399992 193.2,19.4799992 C193.2,21.3999992 192.04,22.3399992 189.58,22.3399992 C189.38,22.3399992 189.16,22.3399992 188.94,22.3199992 L188.94,16.8199992 Z M203.44,24.5199992 L204.68,27.7999992 L206,27.7999992 L201.34,15.9199992 L199.76,15.9199992 L195.16,27.7999992 L196.44,27.7999992 L197.68,24.5199992 L203.44,24.5199992 Z M203.04,23.4799992 L198.06,23.4799992 L200.54,16.9199992 L203.04,23.4799992 Z M209.14,23.1999992 L210.92,23.1999992 L214.6,27.7999992 L216.14,27.7999992 L212.2,22.9199992 C213.78,22.4599992 214.78,21.1599992 214.78,19.3999992 C214.78,17.1999992 213.36,15.7199992 210.16,15.7199992 C209.46,15.7199992 208.44,15.8199992 207.9,15.8999992 L207.9,27.7999992 L209.14,27.7999992 L209.14,23.1999992 Z M209.14,16.8399992 C209.42,16.8199992 209.9,16.7999992 210.14,16.7999992 C212.56,16.7999992 213.5,17.9199992 213.5,19.4399992 C213.5,21.2599992 212.34,22.1799992 210.38,22.1799992 L209.14,22.1799992 L209.14,16.8399992 Z M221.6,16.9999992 L225.52,16.9999992 L225.52,15.9199992 L216.44,15.9199992 L216.44,16.9999992 L220.36,16.9999992 L220.36,27.7999992 L221.6,27.7999992 L221.6,16.9999992 Z M228.8,15.9199992 L227.52,15.9199992 L227.52,27.7999992 L228.72,27.7999992 L228.72,17.7399992 L235.8,27.7999992 L237.04,27.7999992 L237.04,15.9199992 L235.84,15.9199992 L235.84,25.9999992 L228.8,15.9199992 Z M241.68,26.7199992 L241.68,22.2799992 L246.84,22.2799992 L246.84,21.1999992 L241.68,21.1999992 L241.68,16.9999992 L247.2,16.9999992 L247.2,15.9199992 L240.44,15.9199992 L240.44,27.7999992 L247.28,27.7999992 L247.28,26.7199992 L241.68,26.7199992 Z M251.22,23.1999992 L253,23.1999992 L256.68,27.7999992 L258.22,27.7999992 L254.28,22.9199992 C255.86,22.4599992 256.86,21.1599992 256.86,19.3999992 C256.86,17.1999992 255.44,15.7199992 252.24,15.7199992 C251.54,15.7199992 250.52,15.8199992 249.98,15.8999992 L249.98,27.7999992 L251.22,27.7999992 L251.22,23.1999992 Z M251.22,16.8399992 C251.5,16.8199992 251.98,16.7999992 252.22,16.7999992 C254.64,16.7999992 255.58,17.9199992 255.58,19.4399992 C255.58,21.2599992 254.42,22.1799992 252.46,22.1799992 L251.22,22.1799992 L251.22,16.8399992 Z M259.06,27.0799992 C259.78,27.6399992 260.8,27.9999992 262.08,27.9999992 C264.22,27.9999992 265.94,26.9399992 265.94,24.7599992 C265.94,22.6799992 264.78,21.8599992 262.58,21.0999992 C260.86,20.4999992 260.18,19.9399992 260.18,18.7999992 C260.18,17.5799992 261.1,16.7799992 262.44,16.7799992 C263.52,16.7799992 264.32,17.1799992 265.28,17.9399992 L265.28,16.6599992 C264.56,16.0799992 263.6,15.7199992 262.44,15.7199992 C260.66,15.7199992 258.98,16.7599992 258.98,18.7799992 C258.98,20.7999992 260.12,21.4999992 262.24,22.2799992 C263.66,22.7999992 264.72,23.3399992 264.72,24.7599992 C264.72,26.3199992 263.5,26.9399992 262.08,26.9399992 C260.88,26.9399992 260.02,26.4799992 259.06,25.7199992 L259.06,27.0799992 Z" id="PARTNERS" fill="#FFFFFF"></path>
        </g>
        <g id="Artboard-2"></g>
    </g>
</svg>