<?xml version="1.0" encoding="UTF-8"?>
<svg width="220px" height="41px" viewBox="0 0 220 41" version="1.1" xmlns="http://www.w3.org/2000/svg" xmlns:xlink="http://www.w3.org/1999/xlink">
    <!-- Generator: Sketch 41.2 (35397) - http://www.bohemiancoding.com/sketch -->
    <title>Artboard</title>
    <desc>Created with Sketch.</desc>
    <defs></defs>
    <g id="Welcome" stroke="none" stroke-width="1" fill="none" fill-rule="evenodd">
        <g id="Artboard">
            <g id="Group-22-Copy" transform="translate(1.000000, 1.000000)">
                <path d="M84.4881645,18.5342076 C84.4881645,15.7251981 82.5737821,13.4260314 79.3339592,13.4260314 C76.0949917,13.4260314 74.1806093,15.7251981 74.1806093,18.5342076 C74.1806093,21.3427933 76.2789025,23.6406886 79.3339592,23.6406886 C82.3894436,23.6406886 84.4881645,21.3427933 84.4881645,18.5342076 M69.2843067,33.990541 L69.2843067,10.5555695 C69.2843067,9.98596952 69.750499,9.52401714 70.325327,9.52401714 L73.4813208,9.52401714 L73.775578,12.0045743 C75.1745827,9.99741238 77.6039152,9.12224571 79.6654262,9.12224571 C85.2610173,9.12224571 88.9790081,13.2450648 88.9790081,18.5342076 C88.9790081,23.7869029 85.6288388,27.9444743 79.8125548,27.9444743 C77.8990278,27.9444743 75.0642362,27.3613124 73.775578,25.3918695 L73.775578,33.990541 C73.775578,34.5597171 73.3098133,35.0216695 72.7349854,35.0216695 L70.325327,35.0216695 C69.750499,35.0216695 69.2843067,34.5597171 69.2843067,33.990541" id="Fill-2" fill="#FFFFFF"></path>
                <path d="M96.1663679,9.52414429 L96.497835,11.6025062 C97.896412,9.37708238 99.7740123,9.04990143 101.61483,9.04990143 C103.492003,9.04990143 105.296039,9.77927762 106.289585,10.7646348 L104.265284,14.631049 C103.345302,13.8648014 102.498457,13.46303 101.025461,13.46303 C98.6696925,13.46303 96.497835,14.7035205 96.497835,18.0232205 L96.497835,26.4756776 C96.497835,27.0452776 96.0320703,27.50723 95.4568147,27.50723 L93.047584,27.50723 C92.472756,27.50723 92.0065637,27.0452776 92.0065637,26.4756776 L92.0065637,10.5556967 C92.0065637,9.98609667 92.472756,9.52414429 93.047584,9.52414429 L96.1663679,9.52414429 Z" id="Fill-4" fill="#FFFFFF"></path>
                <path d="M110.906557,18.5342076 C110.906557,21.2694743 112.563464,23.8229267 115.839214,23.8229267 C119.115391,23.8229267 120.771871,21.2694743 120.771871,18.5342076 C120.771871,15.834541 118.858344,13.2081933 115.839214,13.2081933 C112.599819,13.2081933 110.906557,15.834541 110.906557,18.5342076 M125.300352,18.5342076 C125.300352,23.71316 121.72949,27.9076029 115.839214,27.9076029 C109.949793,27.9076029 106.415713,23.71316 106.415713,18.5342076 C106.415713,13.3904314 110.023358,9.15911714 115.802859,9.15911714 C121.582361,9.15911714 125.300352,13.3904314 125.300352,18.5342076" id="Fill-6" fill="#FFFFFF"></path>
                <path d="M131.758142,18.0599224 C131.758142,21.1969605 133.893645,23.0574843 136.507316,23.0574843 C139.084205,23.0574843 141.21928,21.160089 141.21928,18.0599224 C141.21928,14.9593319 139.084205,12.9886176 136.507316,12.9886176 C133.893645,12.9886176 131.758142,14.9228843 131.758142,18.0599224 M143.283358,8.30806524 L144.937699,9.54643667 C145.402608,9.89438429 145.489003,10.5525605 145.12888,11.0064605 L143.759387,12.7339081 C145.158392,14.3024271 145.673342,16.0896319 145.673342,18.0599224 C145.673342,20.2840748 144.826925,23.4211129 141.845005,24.7717938 C144.863707,26.2669938 145.599778,28.4186748 145.599778,30.71657 C145.599778,35.6785319 141.77144,38.742251 136.507316,38.742251 C131.243192,38.742251 127.304081,35.5687652 127.304081,30.71657 L131.758142,30.71657 C131.758142,33.0513367 133.930427,34.5842557 136.507316,34.5842557 C139.084205,34.5842557 141.108506,33.1971271 141.108506,30.71657 C141.108506,28.2241462 138.73007,27.0951176 136.474383,27.1065605 C132.09688,27.127751 128.136384,24.2962795 127.461474,20.0102938 C126.399497,13.2645176 130.861684,8.93954143 136.507316,8.93954143 C137.942675,8.93954143 139.415244,9.12220333 140.66712,9.96177 L141.839444,8.49157476 C142.190586,8.05166048 142.832135,7.96986524 143.283358,8.30806524" id="Fill-8" fill="#FFFFFF"></path>
                <path d="M152.863696,9.52414429 L153.195163,11.6025062 C154.594167,9.37708238 156.471768,9.04990143 158.312158,9.04990143 C160.189758,9.04990143 161.993794,9.77927762 162.98734,10.7646348 L160.963039,14.631049 C160.04263,13.8648014 159.196213,13.46303 157.722788,13.46303 C155.36702,13.46303 153.195163,14.7035205 153.195163,18.0232205 L153.195163,26.4756776 C153.195163,27.0452776 152.729398,27.50723 152.15457,27.50723 L149.744912,27.50723 C149.170084,27.50723 148.703891,27.0452776 148.703891,26.4756776 L148.703891,10.5556967 C148.703891,9.98609667 149.170084,9.52414429 149.744912,9.52414429 L152.863696,9.52414429 Z" id="Fill-10" fill="#FFFFFF"></path>
                <path d="M177.691132,16.4176605 C177.396875,14.0833176 175.556056,12.9161462 172.97874,12.9161462 C170.549407,12.9161462 168.561461,14.0833176 167.898954,16.4176605 L177.691132,16.4176605 Z M167.825818,20.1026843 C168.120075,22.3268367 170.070812,23.9322271 173.236643,23.9322271 C174.89355,23.9322271 177.06498,23.3126176 178.095735,22.2543652 L180.966881,25.0633748 C179.053354,27.0328176 175.92345,27.9813033 173.163078,27.9813033 C166.904553,27.9813033 163.187418,24.1517605 163.187418,18.387951 C163.187418,12.9161462 166.941763,8.97641286 172.832039,8.97641286 C178.90537,8.97641286 182.697353,12.6970367 181.997637,20.1026843 L167.825818,20.1026843 Z" id="Fill-12" fill="#FFFFFF"></path>
                <path d="M196.642748,14.3023424 C195.354518,13.0991471 193.881949,12.6969519 192.151477,12.6969519 C190.016829,12.6969519 188.838945,13.3542805 188.838945,14.4854281 C188.838945,15.6517519 189.906055,16.3086567 192.225897,16.4544471 C195.649202,16.6739805 199.992917,17.4398043 199.992917,22.2178329 C199.992917,25.3917424 197.379246,28.127009 192.188687,28.127009 C189.317541,28.127009 186.445967,27.65319 183.795514,24.9179233 L186.004154,21.7440138 C187.292384,23.1663186 190.237522,24.2241471 192.262251,24.2605948 C193.955941,24.2974662 195.538428,23.4214519 195.538428,22.1089138 C195.538428,20.8684233 194.507673,20.3577329 191.930784,20.2115186 C188.507478,19.956809 184.421238,18.715471 184.421238,14.6307948 C184.421238,10.4715281 188.765381,9.01362333 192.077913,9.01362333 C194.912704,9.01362333 197.047779,9.55991381 199.146073,11.3844138 L196.642748,14.3023424 Z" id="Fill-14" fill="#FFFFFF"></path>
                <path d="M214.490815,14.3023424 C213.202584,13.0991471 211.729587,12.6969519 209.999543,12.6969519 C207.864896,12.6969519 206.687012,13.3542805 206.687012,14.4854281 C206.687012,15.6517519 207.754122,16.3086567 210.073535,16.4544471 C213.497269,16.6739805 217.840984,17.4398043 217.840984,22.2178329 C217.840984,25.3917424 215.227313,28.127009 210.036326,28.127009 C207.16518,28.127009 204.293606,27.65319 201.64358,24.9179233 L203.85222,21.7440138 C205.140451,23.1663186 208.085161,24.2241471 210.110318,24.2605948 C211.804007,24.2974662 213.386495,23.4214519 213.386495,22.1089138 C213.386495,20.8684233 212.355739,20.3577329 209.778423,20.2115186 C206.355545,19.956809 202.269305,18.715471 202.269305,14.6307948 C202.269305,10.4715281 206.613447,9.01362333 209.925979,9.01362333 C212.760343,9.01362333 214.895418,9.55991381 216.994139,11.3844138 L214.490815,14.3023424 Z" id="Fill-16" fill="#FFFFFF"></path>
                <path d="M4.31351939,36.2121081 L0.991150558,32.9203795 C0.0506396074,31.9884224 0.0506396074,30.4779652 0.990722859,29.5460081 L28.3155813,2.46797 C31.3039169,-0.491915714 36.163865,-0.491491905 39.1504898,2.46797 L51.4348716,14.641051 L44.7071603,21.3067271 L33.7332494,10.4321986 L7.71886191,36.2121081 C6.77877866,37.1436414 5.25403034,37.1436414 4.31351939,36.2121081" id="Fill-18" fill="#3FCDAE"></path>
                <path d="M33.7331211,36.8925343 C32.5158886,36.8925343 31.2990839,36.4322771 30.3705485,35.5126105 L21.9363166,27.1605962 L28.6618895,20.4923771 L33.7326934,25.5136724 L48.071743,11.3075771 L54.7981713,17.974101 L37.0965491,35.5117629 C36.167586,36.4322771 34.9503535,36.8925343 33.7331211,36.8925343" id="Fill-20" fill="#FFFFFF"></path>
            </g>
        </g>
    </g>
</svg>